<svg width="21" height="18" viewBox="0 0 21 18" fill="none" xmlns="http://www.w3.org/2000/svg">
<g clip-path="url(#clip0_7_376)">
<path d="M8.8421 11.25C9.94737 11.25 11.1079 11.43 12.3789 11.745C11.4837 12.7237 11.0526 13.8713 11.0526 15.1875C11.0526 16.1887 11.3289 17.1338 11.9147 18H0V15.75C0 14.4113 1.00579 13.3313 3.02842 12.51C5.05105 11.6775 6.99632 11.25 8.8421 11.25ZM8.8421 9C7.64842 9 6.63158 8.56125 5.72526 7.68375C4.84105 6.80625 4.42105 5.74875 4.42105 4.5C4.42105 3.285 4.84105 2.25 5.72526 1.3275C6.63158 0.4275 7.64842 0 8.8421 0C10.0689 0 11.1079 0.4275 11.97 1.3275C12.8321 2.25 13.2632 3.285 13.2632 4.5C13.2632 5.74875 12.8321 6.80625 11.97 7.68375C11.1079 8.56125 10.0689 9 8.8421 9ZM17.1316 6.75H21V9H18.7895V15.1875C18.7895 15.9334 18.4984 16.6488 17.9802 17.1762C17.462 17.7037 16.7591 18 16.0263 18C15.2935 18 14.5907 17.7037 14.0725 17.1762C13.5543 16.6488 13.2632 15.9334 13.2632 15.1875C13.2632 14.4416 13.5543 13.7262 14.0725 13.1988C14.5907 12.6713 15.2935 12.375 16.0263 12.375C16.4242 12.375 16.7889 12.4537 17.1316 12.6112V6.75Z" fill="#5D8FAB"/>
</g>
<defs>
<clipPath id="clip0_7_376">
<rect width="21" height="18" fill="white"/>
</clipPath>
</defs>
</svg>
