<svg width="42" height="39" viewBox="0 0 42 39" fill="none" xmlns="http://www.w3.org/2000/svg">
<path d="M11.8125 4.875C10.072 4.875 8.40282 5.51702 7.17211 6.65982C5.9414 7.80262 5.25 9.35259 5.25 10.9688V28.0312C5.25 29.2744 5.649 30.4273 6.33675 31.3926L17.8447 20.7066C18.6816 19.9296 19.8166 19.4931 21 19.4931C22.1834 19.4931 23.3184 19.9296 24.1552 20.7066L35.6633 31.3926C36.3741 30.3959 36.7521 29.2266 36.75 28.0312V10.9688C36.75 9.35259 36.0586 7.80262 34.8279 6.65982C33.5972 5.51702 31.928 4.875 30.1875 4.875H11.8125ZM30.1875 13.4111C30.1875 14.0589 29.9104 14.6801 29.4171 15.1381C28.9239 15.5962 28.2548 15.8535 27.5573 15.8535C26.8597 15.8535 26.1907 15.5962 25.6974 15.1381C25.2041 14.6801 24.927 14.0589 24.927 13.4111C24.927 12.7634 25.2041 12.1421 25.6974 11.6841C26.1907 11.2261 26.8597 10.9688 27.5573 10.9688C28.2548 10.9688 28.9239 11.2261 29.4171 11.6841C29.9104 12.1421 30.1875 12.7634 30.1875 13.4111ZM33.8074 33.1159L22.2994 22.4299C22.1287 22.2714 21.9262 22.1457 21.7032 22.06C21.4803 21.9742 21.2413 21.9301 21 21.9301C20.7587 21.9301 20.5197 21.9742 20.2968 22.06C20.0738 22.1457 19.8713 22.2714 19.7006 22.4299L8.19263 33.1159C9.23213 33.7545 10.4764 34.125 11.8125 34.125H30.1875C31.5263 34.125 32.7679 33.7545 33.8074 33.1159Z" fill="#B1B1B1"/>
</svg>
