<svg width="23" height="23" viewBox="0 0 23 23" fill="none" xmlns="http://www.w3.org/2000/svg">
<path d="M7.66667 13.4167C7.39514 13.4167 7.16738 13.3247 6.98338 13.1407C6.79938 12.9567 6.7077 12.7293 6.70834 12.4584C6.70834 12.1869 6.80034 11.9591 6.98433 11.7751C7.16833 11.5911 7.39578 11.4994 7.66667 11.5001C7.9382 11.5001 8.16596 11.5921 8.34996 11.7761C8.53396 11.9601 8.62564 12.1875 8.625 12.4584C8.625 12.7299 8.533 12.9577 8.349 13.1417C8.165 13.3257 7.93756 13.4174 7.66667 13.4167ZM11.5 13.4167C11.2285 13.4167 11.0007 13.3247 10.8167 13.1407C10.6327 12.9567 10.541 12.7293 10.5417 12.4584C10.5417 12.1869 10.6337 11.9591 10.8177 11.7751C11.0017 11.5911 11.2291 11.4994 11.5 11.5001C11.7715 11.5001 11.9993 11.5921 12.1833 11.7761C12.3673 11.9601 12.459 12.1875 12.4583 12.4584C12.4583 12.7299 12.3663 12.9577 12.1823 13.1417C11.9983 13.3257 11.7709 13.4174 11.5 13.4167ZM15.3333 13.4167C15.0618 13.4167 14.834 13.3247 14.65 13.1407C14.466 12.9567 14.3744 12.7293 14.375 12.4584C14.375 12.1869 14.467 11.9591 14.651 11.7751C14.835 11.5911 15.0624 11.4994 15.3333 11.5001C15.6049 11.5001 15.8326 11.5921 16.0166 11.7761C16.2006 11.9601 16.2923 12.1875 16.2917 12.4584C16.2917 12.7299 16.1997 12.9577 16.0157 13.1417C15.8317 13.3257 15.6042 13.4174 15.3333 13.4167ZM4.79167 21.0834C4.26458 21.0834 3.81321 20.8956 3.43754 20.5199C3.06188 20.1442 2.87436 19.6932 2.875 19.1667V5.75008C2.875 5.223 3.06283 4.77162 3.4385 4.39596C3.81417 4.02029 4.26522 3.83278 4.79167 3.83341H5.75V1.91675H7.66667V3.83341H15.3333V1.91675H17.25V3.83341H18.2083C18.7354 3.83341 19.1868 4.02125 19.5625 4.39691C19.9381 4.77258 20.1256 5.22364 20.125 5.75008V19.1667C20.125 19.6938 19.9372 20.1452 19.5615 20.5209C19.1858 20.8965 18.7348 21.0841 18.2083 21.0834H4.79167ZM4.79167 19.1667H18.2083V9.58341H4.79167V19.1667Z" fill="#5D8FAB"/>
</svg>
