<svg width="23" height="23" viewBox="0 0 23 23" fill="none" xmlns="http://www.w3.org/2000/svg">
<path d="M9.58329 17.2501C10.3819 17.2501 11.0607 16.9706 11.6198 16.4115C12.1788 15.8525 12.4583 15.1737 12.4583 14.3751V7.66675H14.375C14.6465 7.66675 14.8743 7.57475 15.0583 7.39075C15.2423 7.20675 15.3339 6.9793 15.3333 6.70841C15.3333 6.43689 15.2413 6.20912 15.0573 6.02512C14.8733 5.84112 14.6458 5.74944 14.375 5.75008H11.9791C11.7076 5.75008 11.4798 5.84208 11.2958 6.02608C11.1118 6.21008 11.0202 6.43753 11.0208 6.70841V11.8834C10.7972 11.7556 10.5656 11.6598 10.326 11.5959C10.0864 11.532 9.83885 11.5001 9.58329 11.5001C8.78468 11.5001 8.10586 11.7796 7.54683 12.3386C6.98781 12.8977 6.70829 13.5765 6.70829 14.3751C6.70829 15.1737 6.98781 15.8525 7.54683 16.4115C8.10586 16.9706 8.78468 17.2501 9.58329 17.2501ZM11.5 21.0834C10.1743 21.0834 8.92843 20.8317 7.76246 20.3282C6.59649 19.8248 5.58225 19.1422 4.71975 18.2803C3.85725 17.4178 3.1746 16.4036 2.67179 15.2376C2.16899 14.0716 1.91726 12.8258 1.91663 11.5001C1.91663 10.1744 2.16835 8.92855 2.67179 7.76258C3.17524 6.59661 3.85789 5.58237 4.71975 4.71987C5.58225 3.85737 6.59649 3.17472 7.76246 2.67191C8.92843 2.16911 10.1743 1.91739 11.5 1.91675C12.8257 1.91675 14.0715 2.16847 15.2375 2.67191C16.4034 3.17536 17.4177 3.85801 18.2802 4.71987C19.1427 5.58237 19.8256 6.59661 20.3291 7.76258C20.8325 8.92855 21.0839 10.1744 21.0833 11.5001C21.0833 12.8258 20.8316 14.0716 20.3281 15.2376C19.8247 16.4036 19.142 17.4178 18.2802 18.2803C17.4177 19.1428 16.4034 19.8258 15.2375 20.3292C14.0715 20.8326 12.8257 21.0841 11.5 21.0834Z" fill="#5D8FAB"/>
</svg>
