<svg width="23" height="23" viewBox="0 0 23 23" fill="none" xmlns="http://www.w3.org/2000/svg">
<path d="M20.6339 2.36768C20.0225 1.75645 19.1934 1.41309 18.3289 1.41309C17.4643 1.41309 16.6352 1.75645 16.0238 2.36768L9.91445 8.47705C9.83552 8.55574 9.77598 8.65171 9.74051 8.75736L7.94364 14.148C7.9013 14.2746 7.89507 14.4105 7.92563 14.5404C7.95619 14.6704 8.02234 14.7893 8.11666 14.8837C8.21098 14.9782 8.32975 15.0446 8.45965 15.0753C8.58956 15.1061 8.72546 15.1001 8.85214 15.0579L14.2428 13.2611C14.3489 13.2258 14.4454 13.1662 14.5245 13.0871L20.6339 6.97774C21.2451 6.36635 21.5885 5.53723 21.5885 4.67271C21.5885 3.80819 21.2451 2.97907 20.6339 2.36768ZM18.6688 10.9754C18.7761 12.4379 18.4334 13.8982 17.6868 15.1603C16.9403 16.4224 15.8255 17.426 14.4922 18.0363C13.1589 18.6467 11.6708 18.8346 10.2276 18.5749C8.78436 18.3152 7.45513 17.6202 6.41824 16.5833C5.38135 15.5464 4.68641 14.2172 4.4267 12.774C4.16698 11.3308 4.35491 9.84268 4.96526 8.50936C5.57561 7.17603 6.57918 6.06129 7.8413 5.31473C9.10341 4.56817 10.5637 4.22551 12.0261 4.33274L13.2955 3.06199C11.4761 2.67516 9.58036 2.88686 7.89112 3.66552C6.20189 4.44417 4.80963 5.74806 3.92204 7.38269C3.03445 9.01732 2.69908 10.8951 2.96596 12.7359C3.23284 14.5767 4.08766 16.2819 5.40292 17.5972C6.71819 18.9125 8.4234 19.7673 10.2642 20.0342C12.105 20.301 13.9828 19.9657 15.6174 19.0781C17.2521 18.1905 18.556 16.7982 19.3346 15.109C20.1133 13.4198 20.325 11.5241 19.9381 9.70468L18.6688 10.9754Z" fill="#5D8FAB"/>
</svg>
